FFmpeg version SVN-r25716, Copyright (c) 2000-2010 the FFmpeg developers  built on Nov 10 2010 12:23:18 with gcc 4.1.2 20080704 (Red Hat 4.1.2-48)  configuration: --enable-libmp3lame --enable-shared --disable-mmx --arch=x86_64  libavutil     50.33. 0 / 50.33. 0  libavcore      0.12. 1 /  0.12. 1  libavcodec    52.94. 4 / 52.94. 4  libavformat   52.84. 0 / 52.84. 0  libavdevice   52. 2. 2 / 52. 2. 2  libavfilter    1.59. 0 /  1.59. 0  libswscale     0.12. 0 /  0.12. 0Seems stream 0 codec frame rate differs from container frame rate: 3600.00 (3600/1) -> 15.00 (15/1)Input #0, mov,mp4,m4a,3gp,3g2,mj2, from '/RAID10/data/converted_video_files/13162.mov':  Metadata:    major_brand     : qt      minor_version   : 537199360    compatible_brands: qt    Duration: 00:00:05.00, start: 0.000000, bitrate: 429 kb/s    Stream #0.0(eng): Video: h264, yuv420p, 350x324, 426 kb/s, 15 fps, 15 tbr, 1800 tbn, 3600 tbc[buffer @ 0xdfba6c0] w:350 h:324 pixfmt:yuv420pOutput #0, flv, to '/RAID10/data/converted_video_files/13162.flv':  Metadata:    encoder         : Lavf52.84.0    Stream #0.0(eng): Video: flv, yuv420p, 350x324, q=2-31, 600 kb/s, 1k tbn, 24 tbcStream mapping:  Stream #0.0 -> #0.0Press [q] to stop encodingframe=   70 fps=  0 q=7.1 size=     368kB time=4.62 bitrate= 651.0kbits/s    frame=   75 fps=  0 q=7.1 Lsize=     396kB time=4.96 bitrate= 654.4kbits/s    video:395kB audio:0kB global headers:0kB muxing overhead 0.348790%